<?xml version="1.0" encoding="UTF-8"?><svg xmlns="http://www.w3.org/2000/svg" xmlns:xlink="http://www.w3.org/1999/xlink" fill-opacity="1" color-rendering="auto" color-interpolation="auto" stroke="black" text-rendering="auto" stroke-linecap="square" width="1589" stroke-miterlimit="10" stroke-opacity="1" shape-rendering="auto" fill="black" stroke-dasharray="none" font-weight="normal" stroke-width="1" height="1097" font-family="'Dialog'" font-style="normal" stroke-linejoin="miter" font-size="12" stroke-dashoffset="0" image-rendering="auto">
  <!--Generated by ySVG 2.5-->
  <defs id="genericDefs"/>
  <g>
    <defs id="defs1">
      <linearGradient x1="276.2316" gradientUnits="userSpaceOnUse" x2="590.8983" y1="-188.2731" y2="-188.2731" id="linearGradient1" spreadMethod="reflect">
        <stop stop-opacity="1" stop-color="white" offset="0%"/>
        <stop stop-opacity="1" stop-color="white" offset="100%"/>
      </linearGradient>
      <linearGradient x1="-253.5316" gradientUnits="userSpaceOnUse" x2="61.1351" y1="-187.8282" y2="-187.8282" id="linearGradient2" spreadMethod="reflect">
        <stop stop-opacity="1" stop-color="white" offset="0%"/>
        <stop stop-opacity="1" stop-color="white" offset="100%"/>
      </linearGradient>
      <linearGradient x1="-416.7962" gradientUnits="userSpaceOnUse" x2="-382.3612" y1="-212.661" y2="-212.661" id="linearGradient3" spreadMethod="reflect">
        <stop stop-opacity="1" stop-color="rgb(13,163,226)" offset="0%"/>
        <stop stop-opacity="1" stop-color="rgb(13,163,226)" offset="100%"/>
      </linearGradient>
      <linearGradient x1="-255.8712" gradientUnits="userSpaceOnUse" x2="58.7954" y1="134.532" y2="134.532" id="linearGradient4" spreadMethod="reflect">
        <stop stop-opacity="1" stop-color="white" offset="0%"/>
        <stop stop-opacity="1" stop-color="white" offset="100%"/>
      </linearGradient>
      <linearGradient x1="273.636" gradientUnits="userSpaceOnUse" x2="588.3027" y1="135.1206" y2="135.1206" id="linearGradient5" spreadMethod="reflect">
        <stop stop-opacity="1" stop-color="white" offset="0%"/>
        <stop stop-opacity="1" stop-color="white" offset="100%"/>
      </linearGradient>
      <linearGradient x1="-255.8712" gradientUnits="userSpaceOnUse" x2="58.7954" y1="-26.6481" y2="-26.6481" id="linearGradient6" spreadMethod="reflect">
        <stop stop-opacity="1" stop-color="white" offset="0%"/>
        <stop stop-opacity="1" stop-color="white" offset="100%"/>
      </linearGradient>
      <linearGradient x1="276.2316" gradientUnits="userSpaceOnUse" x2="590.8983" y1="-26.3872" y2="-26.3872" id="linearGradient7" spreadMethod="reflect">
        <stop stop-opacity="1" stop-color="white" offset="0%"/>
        <stop stop-opacity="1" stop-color="white" offset="100%"/>
      </linearGradient>
      <linearGradient x1="273.9772" gradientUnits="userSpaceOnUse" x2="588.6438" y1="295.7121" y2="295.7121" id="linearGradient8" spreadMethod="reflect">
        <stop stop-opacity="1" stop-color="white" offset="0%"/>
        <stop stop-opacity="1" stop-color="white" offset="100%"/>
      </linearGradient>
      <linearGradient x1="-255.5301" gradientUnits="userSpaceOnUse" x2="59.1366" y1="295.7121" y2="295.7121" id="linearGradient9" spreadMethod="reflect">
        <stop stop-opacity="1" stop-color="white" offset="0%"/>
        <stop stop-opacity="1" stop-color="white" offset="100%"/>
      </linearGradient>
      <linearGradient x1="-256.8145" gradientUnits="userSpaceOnUse" x2="57.8522" y1="456.8922" y2="456.8922" id="linearGradient10" spreadMethod="reflect">
        <stop stop-opacity="1" stop-color="white" offset="0%"/>
        <stop stop-opacity="1" stop-color="white" offset="100%"/>
      </linearGradient>
      <linearGradient x1="273.9772" gradientUnits="userSpaceOnUse" x2="588.6438" y1="456.8922" y2="456.8922" id="linearGradient11" spreadMethod="reflect">
        <stop stop-opacity="1" stop-color="white" offset="0%"/>
        <stop stop-opacity="1" stop-color="white" offset="100%"/>
      </linearGradient>
      <linearGradient x1="-234.1478" gradientUnits="userSpaceOnUse" x2="-122.1478" y1="618.0723" y2="726.0723" id="linearGradient12" spreadMethod="reflect">
        <stop stop-opacity="1" stop-color="rgb(204,0,0)" offset="0%"/>
        <stop stop-opacity="1" stop-color="rgb(204,0,0)" offset="100%"/>
      </linearGradient>
      <linearGradient x1="-233.0281" gradientUnits="userSpaceOnUse" x2="-121.0281" y1="-339.0083" y2="-231.0083" id="linearGradient13" spreadMethod="reflect">
        <stop stop-opacity="1" stop-color="rgb(39,174,39)" offset="0%"/>
        <stop stop-opacity="1" stop-color="rgb(39,174,39)" offset="100%"/>
      </linearGradient>
      <linearGradient x1="797.8219" gradientUnits="userSpaceOnUse" x2="1112.4885" y1="-26.3872" y2="-26.3872" id="linearGradient14" spreadMethod="reflect">
        <stop stop-opacity="1" stop-color="white" offset="0%"/>
        <stop stop-opacity="1" stop-color="white" offset="100%"/>
      </linearGradient>
      <linearGradient x1="797.8219" gradientUnits="userSpaceOnUse" x2="1112.4885" y1="456.8922" y2="456.8922" id="linearGradient15" spreadMethod="reflect">
        <stop stop-opacity="1" stop-color="white" offset="0%"/>
        <stop stop-opacity="1" stop-color="white" offset="100%"/>
      </linearGradient>
      <linearGradient x1="797.8219" gradientUnits="userSpaceOnUse" x2="1112.4885" y1="-188.2731" y2="-188.2731" id="linearGradient16" spreadMethod="reflect">
        <stop stop-opacity="1" stop-color="white" offset="0%"/>
        <stop stop-opacity="1" stop-color="white" offset="100%"/>
      </linearGradient>
      <linearGradient x1="-416.7962" gradientUnits="userSpaceOnUse" x2="-382.3612" y1="-51.9164" y2="-51.9164" id="linearGradient17" spreadMethod="reflect">
        <stop stop-opacity="1" stop-color="rgb(13,163,226)" offset="0%"/>
        <stop stop-opacity="1" stop-color="rgb(13,163,226)" offset="100%"/>
      </linearGradient>
      <linearGradient x1="-416.7962" gradientUnits="userSpaceOnUse" x2="-382.3612" y1="108.8282" y2="108.8282" id="linearGradient18" spreadMethod="reflect">
        <stop stop-opacity="1" stop-color="rgb(13,163,226)" offset="0%"/>
        <stop stop-opacity="1" stop-color="rgb(13,163,226)" offset="100%"/>
      </linearGradient>
      <linearGradient x1="-416.7962" gradientUnits="userSpaceOnUse" x2="-382.3612" y1="269.5728" y2="269.5728" id="linearGradient19" spreadMethod="reflect">
        <stop stop-opacity="1" stop-color="rgb(13,163,226)" offset="0%"/>
        <stop stop-opacity="1" stop-color="rgb(13,163,226)" offset="100%"/>
      </linearGradient>
      <linearGradient x1="-416.7962" gradientUnits="userSpaceOnUse" x2="-382.3612" y1="443.7121" y2="443.7121" id="linearGradient20" spreadMethod="reflect">
        <stop stop-opacity="1" stop-color="rgb(13,163,226)" offset="0%"/>
        <stop stop-opacity="1" stop-color="rgb(13,163,226)" offset="100%"/>
      </linearGradient>
      <linearGradient x1="108.3526" gradientUnits="userSpaceOnUse" x2="142.7876" y1="-212.661" y2="-212.661" id="linearGradient21" spreadMethod="reflect">
        <stop stop-opacity="1" stop-color="rgb(13,163,226)" offset="0%"/>
        <stop stop-opacity="1" stop-color="rgb(13,163,226)" offset="100%"/>
      </linearGradient>
      <linearGradient x1="108.3526" gradientUnits="userSpaceOnUse" x2="142.7876" y1="-51.9164" y2="-51.9164" id="linearGradient22" spreadMethod="reflect">
        <stop stop-opacity="1" stop-color="rgb(13,163,226)" offset="0%"/>
        <stop stop-opacity="1" stop-color="rgb(13,163,226)" offset="100%"/>
      </linearGradient>
      <linearGradient x1="108.3526" gradientUnits="userSpaceOnUse" x2="142.7876" y1="108.8282" y2="108.8282" id="linearGradient23" spreadMethod="reflect">
        <stop stop-opacity="1" stop-color="rgb(13,163,226)" offset="0%"/>
        <stop stop-opacity="1" stop-color="rgb(13,163,226)" offset="100%"/>
      </linearGradient>
      <linearGradient x1="106.013" gradientUnits="userSpaceOnUse" x2="140.448" y1="269.5728" y2="269.5728" id="linearGradient24" spreadMethod="reflect">
        <stop stop-opacity="1" stop-color="rgb(13,163,226)" offset="0%"/>
        <stop stop-opacity="1" stop-color="rgb(13,163,226)" offset="100%"/>
      </linearGradient>
      <linearGradient x1="106.3541" gradientUnits="userSpaceOnUse" x2="140.7892" y1="430.3174" y2="430.3174" id="linearGradient25" spreadMethod="reflect">
        <stop stop-opacity="1" stop-color="rgb(13,163,226)" offset="0%"/>
        <stop stop-opacity="1" stop-color="rgb(13,163,226)" offset="100%"/>
      </linearGradient>
      <linearGradient x1="638.1158" gradientUnits="userSpaceOnUse" x2="672.5509" y1="-212.661" y2="-212.661" id="linearGradient26" spreadMethod="reflect">
        <stop stop-opacity="1" stop-color="rgb(13,163,226)" offset="0%"/>
        <stop stop-opacity="1" stop-color="rgb(13,163,226)" offset="100%"/>
      </linearGradient>
      <linearGradient x1="638.1158" gradientUnits="userSpaceOnUse" x2="672.5509" y1="-51.9164" y2="-51.9164" id="linearGradient27" spreadMethod="reflect">
        <stop stop-opacity="1" stop-color="rgb(13,163,226)" offset="0%"/>
        <stop stop-opacity="1" stop-color="rgb(13,163,226)" offset="100%"/>
      </linearGradient>
      <linearGradient x1="638.1158" gradientUnits="userSpaceOnUse" x2="672.5509" y1="430.3174" y2="430.3174" id="linearGradient28" spreadMethod="reflect">
        <stop stop-opacity="1" stop-color="rgb(13,163,226)" offset="0%"/>
        <stop stop-opacity="1" stop-color="rgb(13,163,226)" offset="100%"/>
      </linearGradient>
      <clipPath clipPathUnits="userSpaceOnUse" id="clipPath1">
        <path d="M0 0 L1589 0 L1589 1097 L0 1097 L0 0 Z"/>
      </clipPath>
      <clipPath clipPathUnits="userSpaceOnUse" id="clipPath2">
        <path d="M-450 -355 L1139 -355 L1139 742 L-450 742 L-450 -355 Z"/>
      </clipPath>
    </defs>
    <g fill="url(#linearGradient1)" text-rendering="geometricPrecision" shape-rendering="geometricPrecision" transform="matrix(1,0,0,1,450,355)" stroke="url(#linearGradient1)">
      <rect x="118.8983" y="-188.2731" clip-path="url(#clipPath2)" width="472" rx="4" ry="4" height="118" stroke="none"/>
    </g>
    <g font-size="24" stroke-linecap="butt" transform="matrix(1,0,0,1,450,355)" text-rendering="geometricPrecision" font-family="sans-serif" shape-rendering="geometricPrecision" font-weight="bold" stroke-miterlimit="1.45">
      <text x="296.2343" xml:space="preserve" y="-119.8453" clip-path="url(#clipPath2)" stroke="none">Submitted</text>
    </g>
    <g stroke-linecap="butt" transform="matrix(1,0,0,1,450,355)" fill="rgb(221,221,221)" text-rendering="geometricPrecision" shape-rendering="geometricPrecision" stroke="rgb(221,221,221)" stroke-miterlimit="1.45">
      <rect x="118.8983" y="-188.2731" clip-path="url(#clipPath2)" fill="none" width="472" rx="4" ry="4" height="118"/>
    </g>
    <g fill="url(#linearGradient2)" text-rendering="geometricPrecision" shape-rendering="geometricPrecision" transform="matrix(1,0,0,1,450,355)" stroke="url(#linearGradient2)">
      <rect x="-410.8649" y="-187.8282" clip-path="url(#clipPath2)" width="472" rx="4" ry="4" height="118" stroke="none"/>
    </g>
    <g font-size="24" stroke-linecap="butt" transform="matrix(1,0,0,1,450,355)" text-rendering="geometricPrecision" font-family="sans-serif" shape-rendering="geometricPrecision" font-weight="bold" stroke-miterlimit="1.45">
      <text x="-304.2165" xml:space="preserve" y="-119.4005" clip-path="url(#clipPath2)" stroke="none">Paper being submitted</text>
    </g>
    <g stroke-linecap="butt" transform="matrix(1,0,0,1,450,355)" fill="rgb(221,221,221)" text-rendering="geometricPrecision" shape-rendering="geometricPrecision" stroke="rgb(221,221,221)" stroke-miterlimit="1.45">
      <rect x="-410.8649" y="-187.8282" clip-path="url(#clipPath2)" fill="none" width="472" rx="4" ry="4" height="118"/>
    </g>
    <g fill="url(#linearGradient3)" text-rendering="geometricPrecision" shape-rendering="geometricPrecision" transform="matrix(1,0,0,1,450,355)" stroke="url(#linearGradient3)">
      <ellipse rx="25.8263" ry="25" clip-path="url(#clipPath2)" cx="-408.1875" cy="-187.661" stroke="none"/>
    </g>
    <g font-size="24" stroke-linecap="butt" transform="matrix(1,0,0,1,450,355)" fill="white" text-rendering="geometricPrecision" font-family="sans-serif" shape-rendering="geometricPrecision" stroke="white" stroke-miterlimit="1.45">
      <text x="-416.1914" xml:space="preserve" y="-178.2333" clip-path="url(#clipPath2)" stroke="none">B</text>
    </g>
    <g fill="url(#linearGradient4)" text-rendering="geometricPrecision" shape-rendering="geometricPrecision" transform="matrix(1,0,0,1,450,355)" stroke="url(#linearGradient4)">
      <rect x="-413.2046" y="134.532" clip-path="url(#clipPath2)" width="472" rx="4" ry="4" height="118" stroke="none"/>
    </g>
    <g font-size="24" stroke-linecap="butt" transform="matrix(1,0,0,1,450,355)" text-rendering="geometricPrecision" font-family="sans-serif" shape-rendering="geometricPrecision" font-weight="bold" stroke-miterlimit="1.45">
      <text x="-321.2632" xml:space="preserve" y="188.2586" clip-path="url(#clipPath2)" stroke="none">Camera-ready paper and </text>
      <text x="-290.5718" xml:space="preserve" y="217.6609" clip-path="url(#clipPath2)" stroke="none">materials submitted</text>
    </g>
    <g stroke-linecap="butt" transform="matrix(1,0,0,1,450,355)" fill="rgb(221,221,221)" text-rendering="geometricPrecision" shape-rendering="geometricPrecision" stroke="rgb(221,221,221)" stroke-miterlimit="1.45">
      <rect x="-413.2046" y="134.532" clip-path="url(#clipPath2)" fill="none" width="472" rx="4" ry="4" height="118"/>
    </g>
    <g fill="url(#linearGradient5)" text-rendering="geometricPrecision" shape-rendering="geometricPrecision" transform="matrix(1,0,0,1,450,355)" stroke="url(#linearGradient5)">
      <rect x="116.3027" y="135.1206" clip-path="url(#clipPath2)" width="472" rx="4" ry="4" height="118" stroke="none"/>
    </g>
    <g font-size="24" stroke-linecap="butt" transform="matrix(1,0,0,1,450,355)" text-rendering="geometricPrecision" font-family="sans-serif" shape-rendering="geometricPrecision" font-weight="bold" stroke-miterlimit="1.45">
      <text x="143.58" xml:space="preserve" y="203.5483" clip-path="url(#clipPath2)" stroke="none">Review results mailed to the authors</text>
    </g>
    <g stroke-linecap="butt" transform="matrix(1,0,0,1,450,355)" fill="rgb(221,221,221)" text-rendering="geometricPrecision" shape-rendering="geometricPrecision" stroke="rgb(221,221,221)" stroke-miterlimit="1.45">
      <rect x="116.3027" y="135.1206" clip-path="url(#clipPath2)" fill="none" width="472" rx="4" ry="4" height="118"/>
    </g>
    <g fill="url(#linearGradient6)" text-rendering="geometricPrecision" shape-rendering="geometricPrecision" transform="matrix(1,0,0,1,450,355)" stroke="url(#linearGradient6)">
      <rect x="-413.2046" y="-26.6481" clip-path="url(#clipPath2)" width="472" rx="4" ry="4" height="118" stroke="none"/>
    </g>
    <g font-size="24" stroke-linecap="butt" transform="matrix(1,0,0,1,450,355)" text-rendering="geometricPrecision" font-family="sans-serif" shape-rendering="geometricPrecision" font-weight="bold" stroke-miterlimit="1.45">
      <text x="-231.2222" xml:space="preserve" y="41.7796" clip-path="url(#clipPath2)" stroke="none">Accepted</text>
    </g>
    <g stroke-linecap="butt" transform="matrix(1,0,0,1,450,355)" fill="rgb(221,221,221)" text-rendering="geometricPrecision" shape-rendering="geometricPrecision" stroke="rgb(221,221,221)" stroke-miterlimit="1.45">
      <rect x="-413.2046" y="-26.6481" clip-path="url(#clipPath2)" fill="none" width="472" rx="4" ry="4" height="118"/>
    </g>
    <g fill="url(#linearGradient7)" text-rendering="geometricPrecision" shape-rendering="geometricPrecision" transform="matrix(1,0,0,1,450,355)" stroke="url(#linearGradient7)">
      <rect x="118.8983" y="-26.3872" clip-path="url(#clipPath2)" width="472" rx="4" ry="4" height="118" stroke="none"/>
    </g>
    <g font-size="24" stroke-linecap="butt" transform="matrix(1,0,0,1,450,355)" text-rendering="geometricPrecision" font-family="sans-serif" shape-rendering="geometricPrecision" font-weight="bold" stroke-miterlimit="1.45">
      <text x="211.5077" xml:space="preserve" y="27.3394" clip-path="url(#clipPath2)" stroke="none">Review results made and</text>
      <text x="233.5624" xml:space="preserve" y="56.7417" clip-path="url(#clipPath2)" stroke="none">reported to the editor</text>
    </g>
    <g stroke-linecap="butt" transform="matrix(1,0,0,1,450,355)" fill="rgb(221,221,221)" text-rendering="geometricPrecision" shape-rendering="geometricPrecision" stroke="rgb(221,221,221)" stroke-miterlimit="1.45">
      <rect x="118.8983" y="-26.3872" clip-path="url(#clipPath2)" fill="none" width="472" rx="4" ry="4" height="118"/>
    </g>
    <g fill="url(#linearGradient8)" text-rendering="geometricPrecision" shape-rendering="geometricPrecision" transform="matrix(1,0,0,1,450,355)" stroke="url(#linearGradient8)">
      <rect x="116.6438" y="295.7121" clip-path="url(#clipPath2)" width="472" rx="4" ry="4" height="118" stroke="none"/>
    </g>
    <g font-size="24" stroke-linecap="butt" transform="matrix(1,0,0,1,450,355)" text-rendering="geometricPrecision" font-family="sans-serif" shape-rendering="geometricPrecision" font-weight="bold" stroke-miterlimit="1.45">
      <text x="209.9388" xml:space="preserve" y="364.1399" clip-path="url(#clipPath2)" stroke="none">Revised paper submitted</text>
    </g>
    <g stroke-linecap="butt" transform="matrix(1,0,0,1,450,355)" fill="rgb(221,221,221)" text-rendering="geometricPrecision" shape-rendering="geometricPrecision" stroke="rgb(221,221,221)" stroke-miterlimit="1.45">
      <rect x="116.6438" y="295.7121" clip-path="url(#clipPath2)" fill="none" width="472" rx="4" ry="4" height="118"/>
    </g>
    <g fill="url(#linearGradient9)" text-rendering="geometricPrecision" shape-rendering="geometricPrecision" transform="matrix(1,0,0,1,450,355)" stroke="url(#linearGradient9)">
      <rect x="-412.8634" y="295.7121" clip-path="url(#clipPath2)" width="472" rx="4" ry="4" height="118" stroke="none"/>
    </g>
    <g font-size="24" stroke-linecap="butt" transform="matrix(1,0,0,1,450,355)" text-rendering="geometricPrecision" font-family="sans-serif" shape-rendering="geometricPrecision" font-weight="bold" stroke-miterlimit="1.45">
      <text x="-303.5783" xml:space="preserve" y="349.4387" clip-path="url(#clipPath2)" stroke="none">Gallery Proofs mailed </text>
      <text x="-256.8615" xml:space="preserve" y="378.841" clip-path="url(#clipPath2)" stroke="none">to the authors</text>
    </g>
    <g stroke-linecap="butt" transform="matrix(1,0,0,1,450,355)" fill="rgb(221,221,221)" text-rendering="geometricPrecision" shape-rendering="geometricPrecision" stroke="rgb(221,221,221)" stroke-miterlimit="1.45">
      <rect x="-412.8634" y="295.7121" clip-path="url(#clipPath2)" fill="none" width="472" rx="4" ry="4" height="118"/>
    </g>
    <g fill="url(#linearGradient10)" text-rendering="geometricPrecision" shape-rendering="geometricPrecision" transform="matrix(1,0,0,1,450,355)" stroke="url(#linearGradient10)">
      <rect x="-414.1478" y="456.8922" clip-path="url(#clipPath2)" width="472" rx="4" ry="4" height="118" stroke="none"/>
    </g>
    <g font-size="24" stroke-linecap="butt" transform="matrix(1,0,0,1,450,355)" text-rendering="geometricPrecision" font-family="sans-serif" shape-rendering="geometricPrecision" font-weight="bold" stroke-miterlimit="1.45">
      <text x="-235.4877" xml:space="preserve" y="525.3199" clip-path="url(#clipPath2)" stroke="none">Published</text>
    </g>
    <g stroke-linecap="butt" transform="matrix(1,0,0,1,450,355)" fill="rgb(221,221,221)" text-rendering="geometricPrecision" shape-rendering="geometricPrecision" stroke="rgb(221,221,221)" stroke-miterlimit="1.45">
      <rect x="-414.1478" y="456.8922" clip-path="url(#clipPath2)" fill="none" width="472" rx="4" ry="4" height="118"/>
    </g>
    <g fill="url(#linearGradient11)" text-rendering="geometricPrecision" shape-rendering="geometricPrecision" transform="matrix(1,0,0,1,450,355)" stroke="url(#linearGradient11)">
      <rect x="116.6438" y="456.8922" clip-path="url(#clipPath2)" width="472" rx="4" ry="4" height="118" stroke="none"/>
    </g>
    <g font-size="24" stroke-linecap="butt" transform="matrix(1,0,0,1,450,355)" text-rendering="geometricPrecision" font-family="sans-serif" shape-rendering="geometricPrecision" font-weight="bold" stroke-miterlimit="1.45">
      <text x="302.6223" xml:space="preserve" y="525.3199" clip-path="url(#clipPath2)" stroke="none">Rejected</text>
    </g>
    <g stroke-linecap="butt" transform="matrix(1,0,0,1,450,355)" fill="rgb(221,221,221)" text-rendering="geometricPrecision" shape-rendering="geometricPrecision" stroke="rgb(221,221,221)" stroke-miterlimit="1.45">
      <rect x="116.6438" y="456.8922" clip-path="url(#clipPath2)" fill="none" width="472" rx="4" ry="4" height="118"/>
    </g>
    <g fill="url(#linearGradient12)" text-rendering="geometricPrecision" shape-rendering="geometricPrecision" transform="matrix(1,0,0,1,450,355)" stroke="url(#linearGradient12)">
      <circle r="52.75" clip-path="url(#clipPath2)" cx="-178.1478" cy="672.0723" stroke="none"/>
    </g>
    <g font-size="24" stroke-linecap="butt" transform="matrix(1,0,0,1,450,355)" fill="white" text-rendering="geometricPrecision" font-family="sans-serif" shape-rendering="geometricPrecision" stroke="white" font-weight="bold" stroke-miterlimit="1.45">
      <text x="-200.8119" xml:space="preserve" y="681.5001" clip-path="url(#clipPath2)" stroke="none">End</text>
    </g>
    <g fill="url(#linearGradient13)" text-rendering="geometricPrecision" shape-rendering="geometricPrecision" transform="matrix(1,0,0,1,450,355)" stroke="url(#linearGradient13)">
      <path d="M-123.0281 -285.0083 C-123.0281 -255.1849 -147.2048 -231.0083 -177.0281 -231.0083 C-206.8515 -231.0083 -231.0281 -255.1849 -231.0281 -285.0083 C-231.0281 -314.8317 -206.8515 -339.0083 -177.0281 -339.0083 C-147.2048 -339.0083 -123.0281 -314.8317 -123.0281 -285.0083 Z" clip-path="url(#clipPath2)" stroke="none"/>
    </g>
    <g font-size="24" stroke-linecap="butt" transform="matrix(1,0,0,1,450,355)" fill="white" text-rendering="geometricPrecision" font-family="sans-serif" shape-rendering="geometricPrecision" stroke="white" font-weight="bold" stroke-miterlimit="1.45">
      <text x="-204.368" xml:space="preserve" y="-275.5806" clip-path="url(#clipPath2)" stroke="none">Start</text>
    </g>
    <g fill="url(#linearGradient14)" text-rendering="geometricPrecision" shape-rendering="geometricPrecision" transform="matrix(1,0,0,1,450,355)" stroke="url(#linearGradient14)">
      <rect x="640.4885" y="-26.3872" clip-path="url(#clipPath2)" width="472" rx="4" ry="4" height="118" stroke="none"/>
    </g>
    <g font-size="24" stroke-linecap="butt" transform="matrix(1,0,0,1,450,355)" text-rendering="geometricPrecision" font-family="sans-serif" shape-rendering="geometricPrecision" font-weight="bold" stroke-miterlimit="1.45">
      <text x="801.1252" xml:space="preserve" y="42.0406" clip-path="url(#clipPath2)" stroke="none">Under review</text>
    </g>
    <g stroke-linecap="butt" transform="matrix(1,0,0,1,450,355)" fill="rgb(221,221,221)" text-rendering="geometricPrecision" shape-rendering="geometricPrecision" stroke="rgb(221,221,221)" stroke-miterlimit="1.45">
      <rect x="640.4885" y="-26.3872" clip-path="url(#clipPath2)" fill="none" width="472" rx="4" ry="4" height="118"/>
    </g>
    <g fill="url(#linearGradient15)" text-rendering="geometricPrecision" shape-rendering="geometricPrecision" transform="matrix(1,0,0,1,450,355)" stroke="url(#linearGradient15)">
      <rect x="640.4885" y="456.8922" clip-path="url(#clipPath2)" width="472" rx="4" ry="4" height="118" stroke="none"/>
    </g>
    <g font-size="24" stroke-linecap="butt" transform="matrix(1,0,0,1,450,355)" text-rendering="geometricPrecision" font-family="sans-serif" shape-rendering="geometricPrecision" font-weight="bold" stroke-miterlimit="1.45">
      <text x="815.1643" xml:space="preserve" y="525.3199" clip-path="url(#clipPath2)" stroke="none">Withdrawn</text>
    </g>
    <g stroke-linecap="butt" transform="matrix(1,0,0,1,450,355)" fill="rgb(221,221,221)" text-rendering="geometricPrecision" shape-rendering="geometricPrecision" stroke="rgb(221,221,221)" stroke-miterlimit="1.45">
      <rect x="640.4885" y="456.8922" clip-path="url(#clipPath2)" fill="none" width="472" rx="4" ry="4" height="118"/>
    </g>
    <g fill="url(#linearGradient16)" text-rendering="geometricPrecision" shape-rendering="geometricPrecision" transform="matrix(1,0,0,1,450,355)" stroke="url(#linearGradient16)">
      <rect x="640.4885" y="-188.2731" clip-path="url(#clipPath2)" width="472" rx="4" ry="4" height="118" stroke="none"/>
    </g>
    <g font-size="24" stroke-linecap="butt" transform="matrix(1,0,0,1,450,355)" text-rendering="geometricPrecision" font-family="sans-serif" shape-rendering="geometricPrecision" font-weight="bold" stroke-miterlimit="1.45">
      <text x="755.1292" xml:space="preserve" y="-119.8453" clip-path="url(#clipPath2)" stroke="none">Editor being selected</text>
    </g>
    <g stroke-linecap="butt" transform="matrix(1,0,0,1,450,355)" fill="rgb(221,221,221)" text-rendering="geometricPrecision" shape-rendering="geometricPrecision" stroke="rgb(221,221,221)" stroke-miterlimit="1.45">
      <rect x="640.4885" y="-188.2731" clip-path="url(#clipPath2)" fill="none" width="472" rx="4" ry="4" height="118"/>
    </g>
    <g fill="url(#linearGradient17)" text-rendering="geometricPrecision" shape-rendering="geometricPrecision" transform="matrix(1,0,0,1,450,355)" stroke="url(#linearGradient17)">
      <ellipse rx="25.8263" ry="25" clip-path="url(#clipPath2)" cx="-408.1875" cy="-26.9164" stroke="none"/>
    </g>
    <g font-size="24" stroke-linecap="butt" transform="matrix(1,0,0,1,450,355)" fill="white" text-rendering="geometricPrecision" font-family="sans-serif" shape-rendering="geometricPrecision" stroke="white" stroke-miterlimit="1.45">
      <text x="-416.1914" xml:space="preserve" y="-17.4887" clip-path="url(#clipPath2)" stroke="none">A</text>
    </g>
    <g fill="url(#linearGradient18)" text-rendering="geometricPrecision" shape-rendering="geometricPrecision" transform="matrix(1,0,0,1,450,355)" stroke="url(#linearGradient18)">
      <ellipse rx="25.8263" ry="25" clip-path="url(#clipPath2)" cx="-408.1875" cy="133.8282" stroke="none"/>
    </g>
    <g font-size="24" stroke-linecap="butt" transform="matrix(1,0,0,1,450,355)" fill="white" text-rendering="geometricPrecision" font-family="sans-serif" shape-rendering="geometricPrecision" stroke="white" stroke-miterlimit="1.45">
      <text x="-416.1914" xml:space="preserve" y="143.2559" clip-path="url(#clipPath2)" stroke="none">B</text>
    </g>
    <g fill="url(#linearGradient19)" text-rendering="geometricPrecision" shape-rendering="geometricPrecision" transform="matrix(1,0,0,1,450,355)" stroke="url(#linearGradient19)">
      <ellipse rx="25.8263" ry="25" clip-path="url(#clipPath2)" cx="-408.1875" cy="294.5728" stroke="none"/>
    </g>
    <g font-size="24" stroke-linecap="butt" transform="matrix(1,0,0,1,450,355)" fill="white" text-rendering="geometricPrecision" font-family="sans-serif" shape-rendering="geometricPrecision" stroke="white" stroke-miterlimit="1.45">
      <text x="-417.5215" xml:space="preserve" y="304.0005" clip-path="url(#clipPath2)" stroke="none">G</text>
    </g>
    <g fill="url(#linearGradient20)" text-rendering="geometricPrecision" shape-rendering="geometricPrecision" transform="matrix(1,0,0,1,450,355)" stroke="url(#linearGradient20)">
      <ellipse rx="25.8263" ry="25" clip-path="url(#clipPath2)" cx="-408.1875" cy="468.7121" stroke="none"/>
    </g>
    <g font-size="24" stroke-linecap="butt" transform="matrix(1,0,0,1,450,355)" fill="white" text-rendering="geometricPrecision" font-family="sans-serif" shape-rendering="geometricPrecision" stroke="white" stroke-miterlimit="1.45">
      <text x="-416.1914" xml:space="preserve" y="478.1399" clip-path="url(#clipPath2)" stroke="none">P</text>
    </g>
    <g fill="url(#linearGradient21)" text-rendering="geometricPrecision" shape-rendering="geometricPrecision" transform="matrix(1,0,0,1,450,355)" stroke="url(#linearGradient21)">
      <ellipse rx="25.8263" ry="25" clip-path="url(#clipPath2)" cx="116.9614" cy="-187.661" stroke="none"/>
    </g>
    <g font-size="24" stroke-linecap="butt" transform="matrix(1,0,0,1,450,355)" fill="white" text-rendering="geometricPrecision" font-family="sans-serif" shape-rendering="geometricPrecision" stroke="white" stroke-miterlimit="1.45">
      <text x="113.6274" xml:space="preserve" y="-178.2333" clip-path="url(#clipPath2)" stroke="none">I</text>
    </g>
    <g fill="url(#linearGradient22)" text-rendering="geometricPrecision" shape-rendering="geometricPrecision" transform="matrix(1,0,0,1,450,355)" stroke="url(#linearGradient22)">
      <ellipse rx="25.8263" ry="25" clip-path="url(#clipPath2)" cx="116.9614" cy="-26.9164" stroke="none"/>
    </g>
    <g font-size="24" stroke-linecap="butt" transform="matrix(1,0,0,1,450,355)" fill="white" text-rendering="geometricPrecision" font-family="sans-serif" shape-rendering="geometricPrecision" stroke="white" stroke-miterlimit="1.45">
      <text x="108.9574" xml:space="preserve" y="-17.4887" clip-path="url(#clipPath2)" stroke="none">E</text>
    </g>
    <g fill="url(#linearGradient23)" text-rendering="geometricPrecision" shape-rendering="geometricPrecision" transform="matrix(1,0,0,1,450,355)" stroke="url(#linearGradient23)">
      <ellipse rx="25.8263" ry="25" clip-path="url(#clipPath2)" cx="116.9614" cy="133.8282" stroke="none"/>
    </g>
    <g font-size="24" stroke-linecap="butt" transform="matrix(1,0,0,1,450,355)" fill="white" text-rendering="geometricPrecision" font-family="sans-serif" shape-rendering="geometricPrecision" stroke="white" stroke-miterlimit="1.45">
      <text x="108.2953" xml:space="preserve" y="143.2559" clip-path="url(#clipPath2)" stroke="none">D</text>
    </g>
    <g fill="url(#linearGradient24)" text-rendering="geometricPrecision" shape-rendering="geometricPrecision" transform="matrix(1,0,0,1,450,355)" stroke="url(#linearGradient24)">
      <ellipse rx="25.8263" ry="25" clip-path="url(#clipPath2)" cx="114.6217" cy="294.5728" stroke="none"/>
    </g>
    <g font-size="24" stroke-linecap="butt" transform="matrix(1,0,0,1,450,355)" fill="white" text-rendering="geometricPrecision" font-family="sans-serif" shape-rendering="geometricPrecision" stroke="white" stroke-miterlimit="1.45">
      <text x="106.6178" xml:space="preserve" y="304.0005" clip-path="url(#clipPath2)" stroke="none">V</text>
    </g>
    <g fill="url(#linearGradient25)" text-rendering="geometricPrecision" shape-rendering="geometricPrecision" transform="matrix(1,0,0,1,450,355)" stroke="url(#linearGradient25)">
      <ellipse rx="25.8263" ry="25" clip-path="url(#clipPath2)" cx="114.9629" cy="455.3174" stroke="none"/>
    </g>
    <g font-size="24" stroke-linecap="butt" transform="matrix(1,0,0,1,450,355)" fill="white" text-rendering="geometricPrecision" font-family="sans-serif" shape-rendering="geometricPrecision" stroke="white" stroke-miterlimit="1.45">
      <text x="108.9629" xml:space="preserve" y="464.7451" clip-path="url(#clipPath2)" stroke="none">J</text>
    </g>
    <g fill="url(#linearGradient26)" text-rendering="geometricPrecision" shape-rendering="geometricPrecision" transform="matrix(1,0,0,1,450,355)" stroke="url(#linearGradient26)">
      <ellipse rx="25.8263" ry="25" clip-path="url(#clipPath2)" cx="646.7246" cy="-187.661" stroke="none"/>
    </g>
    <g font-size="24" stroke-linecap="butt" transform="matrix(1,0,0,1,450,355)" fill="white" text-rendering="geometricPrecision" font-family="sans-serif" shape-rendering="geometricPrecision" stroke="white" stroke-miterlimit="1.45">
      <text x="637.3906" xml:space="preserve" y="-178.2333" clip-path="url(#clipPath2)" stroke="none">O</text>
    </g>
    <g fill="url(#linearGradient27)" text-rendering="geometricPrecision" shape-rendering="geometricPrecision" transform="matrix(1,0,0,1,450,355)" stroke="url(#linearGradient27)">
      <ellipse rx="25.8263" ry="25" clip-path="url(#clipPath2)" cx="646.7246" cy="-26.9164" stroke="none"/>
    </g>
    <g font-size="24" stroke-linecap="butt" transform="matrix(1,0,0,1,450,355)" fill="white" text-rendering="geometricPrecision" font-family="sans-serif" shape-rendering="geometricPrecision" stroke="white" stroke-miterlimit="1.45">
      <text x="638.0586" xml:space="preserve" y="-17.4887" clip-path="url(#clipPath2)" stroke="none">R</text>
    </g>
    <g fill="url(#linearGradient28)" text-rendering="geometricPrecision" shape-rendering="geometricPrecision" transform="matrix(1,0,0,1,450,355)" stroke="url(#linearGradient28)">
      <ellipse rx="25.8263" ry="25" clip-path="url(#clipPath2)" cx="646.7246" cy="455.3174" stroke="none"/>
    </g>
    <g font-size="24" stroke-linecap="butt" transform="matrix(1,0,0,1,450,355)" fill="white" text-rendering="geometricPrecision" font-family="sans-serif" shape-rendering="geometricPrecision" stroke="white" stroke-miterlimit="1.45">
      <text x="635.3984" xml:space="preserve" y="464.7451" clip-path="url(#clipPath2)" stroke="none">W</text>
    </g>
    <g stroke-linecap="butt" transform="matrix(1,0,0,1,450,355)" fill="rgb(102,102,102)" text-rendering="geometricPrecision" shape-rendering="geometricPrecision" stroke="rgb(102,102,102)" stroke-miterlimit="1.45">
      <path fill="none" d="M61.1423 -128.8282 L107.9109 -128.8282" clip-path="url(#clipPath2)"/>
      <path d="M118.9109 -128.8282 L106.9109 -134.8282 L106.9109 -122.8282 Z" clip-path="url(#clipPath2)" stroke="none"/>
    </g>
    <g stroke-linecap="butt" transform="matrix(1,0,0,1,450,355)" fill="rgb(102,102,102)" text-rendering="geometricPrecision" shape-rendering="geometricPrecision" stroke="rgb(102,102,102)" stroke-miterlimit="1.45">
      <path fill="none" d="M-177.2046 91.3385 L-177.2046 123.5013" clip-path="url(#clipPath2)"/>
      <path d="M-177.2046 134.5013 L-171.2046 122.5013 L-183.2046 122.5013 Z" clip-path="url(#clipPath2)" stroke="none"/>
    </g>
    <g stroke-linecap="butt" transform="matrix(1,0,0,1,450,355)" fill="rgb(102,102,102)" text-rendering="geometricPrecision" shape-rendering="geometricPrecision" stroke="rgb(102,102,102)" stroke-miterlimit="1.45">
      <path fill="none" d="M118.8881 32.6128 L69.7804 32.6128" clip-path="url(#clipPath2)"/>
      <path d="M58.7804 32.6128 L70.7804 38.6128 L70.7804 26.6128 Z" clip-path="url(#clipPath2)" stroke="none"/>
    </g>
    <g stroke-linecap="butt" transform="matrix(1,0,0,1,450,355)" fill="rgb(102,102,102)" text-rendering="geometricPrecision" shape-rendering="geometricPrecision" stroke="rgb(102,102,102)" stroke-miterlimit="1.45">
      <path fill="none" d="M352.6438 91.5835 L352.6438 122.7499 L352.4733 132.7499 L352.4733 132.7499 L352.3027 133.9336 L352.3027 135.1172" clip-path="url(#clipPath2)"/>
      <path d="M352.3027 135.1172 L358.3027 123.1172 L346.3027 123.1172 Z" clip-path="url(#clipPath2)" stroke="none"/>
    </g>
    <g stroke-linecap="butt" transform="matrix(1,0,0,1,450,355)" fill="rgb(102,102,102)" text-rendering="geometricPrecision" shape-rendering="geometricPrecision" stroke="rgb(102,102,102)" stroke-miterlimit="1.45">
      <path fill="none" d="M352.3027 253.0866 L352.3027 270.3179 L352.4733 280.3179 L352.4733 280.3179 L352.6438 282.5007 L352.6438 284.6835" clip-path="url(#clipPath2)"/>
      <path d="M352.6438 295.6835 L358.6438 283.6835 L346.6438 283.6835 Z" clip-path="url(#clipPath2)" stroke="none"/>
    </g>
    <g stroke-linecap="butt" transform="matrix(1,0,0,1,450,355)" fill="rgb(102,102,102)" text-rendering="geometricPrecision" shape-rendering="geometricPrecision" stroke="rgb(102,102,102)" stroke-miterlimit="1.45">
      <path fill="none" d="M-177.2046 252.5072 L-177.2046 276.0893 L-177.1859 280.398 L-177.1672 284.7067" clip-path="url(#clipPath2)"/>
      <path d="M-177.1195 295.7066 L-171.1716 283.6807 L-183.1715 283.7328 Z" clip-path="url(#clipPath2)" stroke="none"/>
    </g>
    <g stroke-linecap="butt" transform="matrix(1,0,0,1,450,355)" fill="rgb(102,102,102)" text-rendering="geometricPrecision" shape-rendering="geometricPrecision" stroke="rgb(102,102,102)" stroke-miterlimit="1.45">
      <path fill="none" d="M-176.8634 413.6987 L-176.8634 445.8615" clip-path="url(#clipPath2)"/>
      <path d="M-176.8634 456.8615 L-170.8634 444.8615 L-182.8634 444.8615 Z" clip-path="url(#clipPath2)" stroke="none"/>
    </g>
    <g stroke-linecap="butt" transform="matrix(1,0,0,1,450,355)" fill="rgb(102,102,102)" text-rendering="geometricPrecision" shape-rendering="geometricPrecision" stroke="rgb(102,102,102)" stroke-miterlimit="1.45">
      <path fill="none" d="M590.8937 63.3217 L605.6934 63.3217 L610.0684 63.9467 L613.1934 65.8217 L615.0684 68.9467 L615.6934 73.3217 L615.6934 505.8922 L615.1913 510.2672 L613.6848 513.3922 L611.174 515.2672 L607.6588 515.8922 L599.6242 515.8922" clip-path="url(#clipPath2)"/>
      <path d="M588.6242 515.8922 L600.6242 521.8922 L600.6242 509.8922 Z" clip-path="url(#clipPath2)" stroke="none"/>
    </g>
    <g stroke-linecap="butt" transform="matrix(1,0,0,1,450,355)" fill="rgb(102,102,102)" text-rendering="geometricPrecision" shape-rendering="geometricPrecision" stroke="rgb(102,102,102)" stroke-miterlimit="1.45">
      <path fill="none" d="M-178.1478 574.8792 L-178.1478 607.113" clip-path="url(#clipPath2)"/>
      <path d="M-178.1478 618.113 L-172.1478 606.113 L-184.1478 606.113 Z" clip-path="url(#clipPath2)" stroke="none"/>
    </g>
    <g stroke-linecap="butt" transform="matrix(1,0,0,1,450,355)" fill="rgb(102,102,102)" text-rendering="geometricPrecision" shape-rendering="geometricPrecision" stroke="rgb(102,102,102)" stroke-miterlimit="1.45">
      <path fill="none" d="M352.6438 574.8792 L352.6438 662.0723 L352.0188 666.4473 L350.1438 669.5723 L347.0188 671.4473 L342.6438 672.0723 L-113.1589 672.0723" clip-path="url(#clipPath2)"/>
      <path d="M-124.1589 672.0723 L-112.1589 678.0723 L-112.1589 666.0723 Z" clip-path="url(#clipPath2)" stroke="none"/>
    </g>
    <g stroke-linecap="butt" transform="matrix(1,0,0,1,450,355)" fill="rgb(102,102,102)" text-rendering="geometricPrecision" shape-rendering="geometricPrecision" stroke="rgb(102,102,102)" stroke-miterlimit="1.45">
      <path fill="none" d="M-177.0281 -231.0049 L-177.0281 -198.8329" clip-path="url(#clipPath2)"/>
      <path d="M-177.0281 -187.8329 L-171.0281 -199.8329 L-183.0281 -199.8329 Z" clip-path="url(#clipPath2)" stroke="none"/>
    </g>
    <g stroke-linecap="butt" transform="matrix(1,0,0,1,450,355)" fill="rgb(102,102,102)" text-rendering="geometricPrecision" shape-rendering="geometricPrecision" stroke="rgb(102,102,102)" stroke-miterlimit="1.45">
      <path fill="none" d="M588.6361 354.7121 L610.6934 354.7121 Q610.6934 349.7121 615.6934 349.7121 Q620.6934 349.7121 620.6934 354.7121 L866.4885 354.7121 L870.8635 354.0871 L873.9885 352.2121 L875.8635 349.0871 L876.4885 344.7121 L876.4885 102.6376" clip-path="url(#clipPath2)"/>
      <path d="M876.4885 91.6376 L870.4885 103.6376 L882.4885 103.6376 Z" clip-path="url(#clipPath2)" stroke="none"/>
    </g>
    <g stroke-linecap="butt" transform="matrix(1,0,0,1,450,355)" fill="rgb(102,102,102)" text-rendering="geometricPrecision" shape-rendering="geometricPrecision" stroke="rgb(102,102,102)" stroke-miterlimit="1.45">
      <path fill="none" d="M640.5063 32.6128 L601.9342 32.6128" clip-path="url(#clipPath2)"/>
      <path d="M590.9342 32.6128 L602.9342 38.6128 L602.9342 26.6128 Z" clip-path="url(#clipPath2)" stroke="none"/>
    </g>
    <g stroke-linecap="butt" transform="matrix(1,0,0,1,450,355)" fill="rgb(102,102,102)" text-rendering="geometricPrecision" shape-rendering="geometricPrecision" stroke="rgb(102,102,102)" stroke-miterlimit="1.45">
      <path fill="none" d="M876.4885 574.8792 L876.4885 662.0723 L875.8635 666.4473 L873.9885 669.5723 L870.8635 671.4473 L866.4885 672.0723 L-113.1685 672.0723" clip-path="url(#clipPath2)"/>
      <path d="M-124.1685 672.0723 L-112.1685 678.0723 L-112.1685 666.0723 Z" clip-path="url(#clipPath2)" stroke="none"/>
    </g>
    <g stroke-linecap="butt" transform="matrix(1,0,0,1,450,355)" fill="rgb(102,102,102)" text-rendering="geometricPrecision" shape-rendering="geometricPrecision" stroke="rgb(102,102,102)" stroke-miterlimit="1.45">
      <path fill="none" d="M590.8937 -129.2731 L629.5032 -129.2731" clip-path="url(#clipPath2)"/>
      <path d="M640.5032 -129.2731 L628.5032 -135.2731 L628.5032 -123.2731 Z" clip-path="url(#clipPath2)" stroke="none"/>
    </g>
    <g stroke-linecap="butt" transform="matrix(1,0,0,1,450,355)" fill="rgb(102,102,102)" text-rendering="geometricPrecision" shape-rendering="geometricPrecision" stroke="rgb(102,102,102)" stroke-miterlimit="1.45">
      <path fill="none" d="M876.4885 -70.2669 L876.4885 -37.3735" clip-path="url(#clipPath2)"/>
      <path d="M876.4885 -26.3735 L882.4885 -38.3735 L870.4885 -38.3735 Z" clip-path="url(#clipPath2)" stroke="none"/>
    </g>
    <g stroke-linecap="butt" transform="matrix(1,0,0,1,450,355)" fill="rgb(102,102,102)" text-rendering="geometricPrecision" shape-rendering="geometricPrecision" stroke="rgb(102,102,102)" stroke-miterlimit="1.45">
      <path fill="none" d="M1112.4929 -134.1539 L1117.9642 -134.1539 L1120.3579 -133.5289 L1122.0677 -131.6539 L1123.4355 -124.1539 L1123.4355 396.1064 L1122.8105 400.4814 L1120.9355 403.6064 L1117.8105 405.4814 L1113.4355 406.1064 L625.6934 406.1064 L621.3184 406.7314 L618.1934 408.6064 L616.3184 411.7314 L615.6934 416.1064 L615.6934 505.8922 L615.1909 510.2672 L613.6833 513.3922 L611.1707 515.2672 L607.6531 515.8922 L599.6127 515.8922" clip-path="url(#clipPath2)"/>
      <path d="M588.6127 515.8922 L600.6127 521.8922 L600.6127 509.8922 Z" clip-path="url(#clipPath2)" stroke="none"/>
    </g>
  </g>
</svg>
